<svg xmlns="http://www.w3.org/2000/svg" viewBox="0 0 301 301">
  <g>
    <circle cx="150.5" cy="150.5" r="150" style="fill: #e0e0e0; stroke: #e0e0e0; stroke-miterlimit: 10;"/>
    <g>
      <path d="M76.67,104.82v-26.15h12.83v68.38h-12.83v-7.29c-1.38,2.84-3.16,4.98-5.34,6.42-2.18,1.44-4.75,2.15-7.71,2.15-5.62,0-9.99-2.26-13.1-6.77-3.11-4.51-4.66-10.87-4.66-19.07s1.57-14.71,4.72-19.16c3.15-4.45,7.64-6.68,13.47-6.68,2.64,0,5,.68,7.1,2.04,2.09,1.36,3.93,3.41,5.51,6.13Zm-17.93,17.75c0,4.75,.79,8.47,2.37,11.16,1.58,2.7,3.76,4.04,6.55,4.04s4.98-1.35,6.59-4.04c1.61-2.7,2.42-6.42,2.42-11.16s-.81-8.47-2.42-11.16c-1.61-2.7-3.81-4.04-6.59-4.04s-4.97,1.35-6.55,4.04c-1.58,2.7-2.37,6.42-2.37,11.16Z" style="fill: #4c4c4c;"/>
      <path d="M120.22,117.7h-6.94v-11.43h6.94c3.22,0,5.72-.64,7.49-1.91,1.77-1.27,2.66-3.07,2.66-5.38,0-2.43-.89-4.33-2.66-5.69-1.77-1.36-4.27-2.04-7.49-2.04-2.46,0-5.1,.31-7.91,.92s-5.73,1.51-8.75,2.68v-11.78c3.02-.91,5.99-1.6,8.92-2.09s5.74-.73,8.44-.73c6.91,0,12.3,1.51,16.17,4.53,3.87,3.02,5.8,7.18,5.8,12.48,0,3.9-1.11,7.08-3.34,9.56s-5.41,4.09-9.54,4.86c4.69,.82,8.26,2.69,10.72,5.6s3.69,6.75,3.69,11.49c0,6.36-2.04,11.21-6.11,14.55s-9.99,5.01-17.75,5.01c-3.31,0-6.57-.28-9.78-.83-3.21-.56-6.28-1.36-9.21-2.42v-12.04c2.75,1.38,5.73,2.42,8.92,3.14s6.55,1.08,10.06,1.08,6.3-.81,8.35-2.44,3.08-3.82,3.08-6.57c0-3.37-1.03-5.97-3.08-7.8s-4.95-2.75-8.7-2.75Z" style="fill: #4c4c4c;"/>
      <path d="M200.95,97.83l-15.64,49.22h-15.86l-15.64-49.22h13.05l10.5,38.41,10.55-38.41h13.05Z" style="fill: #4c4c4c;"/>
      <path d="M61.64,204.92h14.68v16.13h-14.68v-16.13Z" style="fill: #323333;"/>
      <path d="M130.86,178.82v-26.15h12.83v68.38h-12.83v-7.29c-1.38,2.84-3.16,4.98-5.34,6.42-2.18,1.44-4.75,2.15-7.71,2.15-5.62,0-9.99-2.26-13.1-6.77s-4.66-10.87-4.66-19.07,1.57-14.71,4.72-19.16c3.15-4.45,7.64-6.68,13.47-6.68,2.64,0,5,.68,7.1,2.04,2.09,1.36,3.93,3.41,5.51,6.13Zm-17.93,17.75c0,4.75,.79,8.47,2.37,11.16s3.76,4.04,6.55,4.04,4.98-1.35,6.59-4.04,2.42-6.42,2.42-11.16-.81-8.47-2.42-11.16c-1.61-2.7-3.81-4.04-6.59-4.04s-4.97,1.35-6.55,4.04c-1.58,2.7-2.37,6.42-2.37,11.16Z" style="fill: #323333;"/>
      <path d="M198.71,218.64c-2.99,1.23-6.04,2.15-9.14,2.77s-6.39,.92-9.84,.92c-8.23,0-14.52-2.2-18.88-6.61-4.35-4.41-6.53-10.76-6.53-19.05s2.09-14.37,6.28-19.03,9.9-6.99,17.14-6.99,12.96,2.16,16.99,6.48c4.03,4.32,6.04,10.41,6.04,18.26v5.23h-33.35c.03,3.87,1.17,6.75,3.43,8.66s5.62,2.86,10.11,2.86c2.96,0,5.87-.42,8.75-1.27s5.87-2.2,9.01-4.04v11.82Zm-10.9-27.69c-.06-3.4-.93-5.97-2.62-7.71s-4.17-2.62-7.45-2.62c-2.96,0-5.32,.9-7.08,2.7s-2.8,4.36-3.12,7.67l20.26-.04Z" style="fill: #323333;"/>
      <path d="M255.13,171.83l-15.64,49.22h-15.86l-15.64-49.22h13.05l10.5,38.41,10.55-38.41h13.05Z" style="fill: #323333;"/>
    </g>
  </g>
</svg>